<svg width="207" height="52" viewBox="0 0 207 52" fill="none" xmlns="http://www.w3.org/2000/svg">
<path d="M52.5997 44.36C52.5997 48.6 49.12 52 44.8716 52H7.72811C3.47967 52 0 48.56 0 44.36V7.64C0 3.44 3.47967 0 7.72811 0H44.8311C49.12 0 52.5997 3.44 52.5997 7.64V44.36Z" fill="#888888"/>
<path d="M50.4957 42.88C50.4957 46.76 47.2993 49.92 43.3745 49.92H9.22519C5.30045 49.92 2.104 46.76 2.104 42.88V9.11996C2.104 5.23996 5.30045 2.07996 9.22519 2.07996H43.3745C47.2993 2.07996 50.4957 5.23996 50.4957 9.11996V42.88Z" fill="#F6F6F6"/>
<path d="M48.3917 41.4C48.3917 44.96 45.4785 47.84 41.8775 47.84H10.7223C7.12122 47.84 4.20801 44.96 4.20801 41.4V10.6C4.20801 7.04 7.12122 4.16 10.7223 4.16H41.9179C45.519 4.16 48.4322 7.04 48.4322 10.6V41.4H48.3917ZM207 44.36C207 48.6 203.52 52 199.272 52H66.6398C62.3509 52 58.9117 48.56 58.9117 44.36V7.64C58.9117 3.4 62.3914 0 66.6398 0H199.272C203.561 0 207 3.44 207 7.64V44.36Z" fill="#888888"/>
<path d="M204.896 42.88C204.896 46.76 201.7 49.92 197.775 49.92H68.1368C64.2121 49.92 61.0156 46.76 61.0156 42.88V9.11996C61.0156 5.23996 64.2121 2.07996 68.1368 2.07996H197.815C201.74 2.07996 204.936 5.23996 204.936 9.11996V42.88H204.896Z" fill="#F6F6F6"/>
<path d="M202.832 41.4C202.832 44.96 199.919 47.84 196.318 47.84H69.5934C65.9923 47.84 63.0791 44.96 63.0791 41.4V10.6C63.0791 7.04003 65.9923 4.16003 69.5934 4.16003H196.318C199.919 4.16003 202.832 7.04003 202.832 10.6V41.4Z" fill="#888888"/>
<path d="M25.3288 36.8399C24.3172 40.1199 21.0399 42.3599 17.6007 42.3599C15.4967 42.3599 13.3118 41.4799 11.8147 40.0399C10.1153 38.4399 9.26562 36.3199 9.26562 34.0399C9.26562 29.5199 13.0285 25.9599 17.5602 25.9599C20.9994 25.9599 24.3981 28.2399 25.3288 31.5999H21.0803C20.2711 30.2399 19.0977 29.5999 17.4793 29.5999C14.8088 29.5999 12.9881 31.5599 12.9881 34.1199C12.9881 36.8399 14.9707 38.7599 17.6816 38.7599C19.0573 38.7599 20.3925 37.9999 21.0803 36.8799H25.3288V36.8399ZM27.7969 11.1599H31.5598V28.0399C32.6523 26.5199 34.6753 25.9199 36.4152 25.9199C40.9873 25.9199 44.2242 29.7999 44.2242 34.1199C44.2646 35.9999 43.4554 38.2799 42.2416 39.7599C40.8659 41.4399 38.681 42.3599 36.5365 42.3599C34.3921 42.3599 32.4904 41.5999 31.2361 39.7599V41.8399H27.7969V11.1599ZM31.317 33.9599C31.317 36.6399 33.2187 38.7599 36.0105 38.7599C38.6405 38.7599 40.5017 36.7999 40.5017 34.1999C40.5017 31.6399 38.681 29.5599 36.0105 29.5599C33.5019 29.5599 31.317 31.3999 31.317 33.9599ZM85.2924 20.1199C84.6046 22.3999 82.2983 23.9599 79.911 23.9599C78.4544 23.9599 76.9574 23.3599 75.8649 22.3599C74.6915 21.2399 74.1251 19.7599 74.1251 18.1999C74.1251 15.0799 76.7551 12.5599 79.911 12.5599C82.2983 12.5599 84.645 14.1599 85.2924 16.4799H82.3792C81.8127 15.5199 81.0035 15.0799 79.8706 15.0799C78.0094 15.0799 76.7551 16.4399 76.7551 18.2399C76.7551 20.1199 78.1308 21.4799 80.0324 21.4799C81.0035 21.4799 81.8937 20.9599 82.4196 20.1599H85.2924V20.1199ZM89.2981 19.3599C89.7027 20.5999 90.8356 21.3999 92.1708 21.3999C93.1419 21.3999 94.0725 21.0399 94.5985 20.4799H97.4713C96.8239 22.3999 94.558 23.9199 92.2517 23.9199C89.0958 23.9199 86.5467 21.3999 86.5467 18.2799C86.5467 15.1199 89.0553 12.4799 92.2922 12.4799C95.3673 12.4799 97.8354 15.1199 97.8354 18.1199C97.8354 18.5199 97.7545 18.9199 97.714 19.3199H89.2981V19.3599ZM95.2459 17.0799C94.8008 15.7999 93.6274 15.0399 92.2922 15.0399C90.9974 15.0399 89.6622 15.8399 89.2981 17.0799H95.2459ZM99.4539 12.8799H101.841V13.8799C102.529 12.9999 103.702 12.5599 104.835 12.5599C105.968 12.5599 107.142 13.0799 107.91 13.8799C107.991 13.9599 108.113 14.0799 108.193 14.1999C109.043 15.3599 109.043 16.6799 109.043 18.0799V23.5999H106.454V18.5599C106.454 17.7199 106.454 16.6799 106.009 15.9599C105.644 15.3999 104.957 15.0799 104.309 15.0799C103.621 15.0799 102.853 15.4399 102.488 16.0399C102.003 16.7599 102.043 17.9199 102.043 18.7999V23.5999H99.4539V12.8799ZM111.471 15.1599H110.217V12.8799H111.471V9.31995H114.06V12.8799H115.638V15.1599H114.06V23.5999H111.471V15.1599ZM116.852 12.8799H119.239V13.8399C119.846 12.9199 120.534 12.5199 121.586 12.5199H121.788V14.9999C121.262 14.9999 120.615 15.1599 120.211 15.5199C119.482 16.1199 119.442 16.9199 119.482 17.7999V23.5999H116.893V12.8799H116.852ZM133.967 23.5999H131.58V22.1599C130.771 23.2799 129.233 23.9599 127.858 23.9599C126.158 23.9599 124.823 23.2799 123.852 22.1599C123.002 21.1199 122.517 19.7599 122.517 18.2399C122.517 16.7599 122.921 15.5199 123.892 14.3999C124.985 13.1599 126.32 12.5599 127.939 12.5599C129.436 12.5599 130.73 13.1999 131.58 14.3999V12.8799H133.967V23.5999ZM128.384 15.0399C126.482 15.0399 125.147 16.4399 125.147 18.3199C125.147 20.0799 126.603 21.4399 128.343 21.3999C130.204 21.3999 131.499 20.0399 131.499 18.1999C131.499 16.3999 130.204 15.0399 128.384 15.0399ZM135.829 9.31995H138.418V23.5999H135.829V9.31995ZM145.782 9.31995H148.372V13.9999C149.14 12.9599 150.516 12.5199 151.77 12.5199C154.926 12.5199 157.192 15.1999 157.192 18.2399C157.192 19.5199 156.666 21.1599 155.816 22.1599C154.845 23.3199 153.348 23.9599 151.851 23.9599C150.354 23.9599 149.019 23.3999 148.169 22.1599V23.5999H145.782V9.31995ZM148.25 18.0799C148.25 19.9599 149.545 21.3999 151.528 21.3999C153.348 21.3999 154.643 20.0399 154.643 18.2399C154.643 16.4799 153.389 15.0399 151.528 15.0399C149.747 15.0399 148.25 16.3199 148.25 18.0799ZM169.573 23.5999H167.186V22.1599C166.377 23.2799 164.839 23.9599 163.464 23.9599C161.764 23.9599 160.429 23.2799 159.458 22.1599C158.608 21.1199 158.123 19.7599 158.123 18.2399C158.123 16.7599 158.527 15.5199 159.498 14.3999C160.591 13.1599 161.926 12.5599 163.545 12.5599C165.042 12.5599 166.336 13.1999 167.186 14.3999V12.8799H169.573V23.5999ZM163.99 15.0399C162.088 15.0399 160.753 16.4399 160.753 18.3199C160.753 20.0799 162.209 21.4399 163.949 21.3999C165.81 21.3999 167.105 20.0399 167.105 18.1999C167.105 16.3999 165.81 15.0399 163.99 15.0399ZM171.394 12.8799H173.781V13.8799C174.469 12.9999 175.642 12.5599 176.775 12.5599C177.908 12.5599 179.082 13.0799 179.85 13.8799C179.931 13.9599 180.053 14.0799 180.134 14.1999C180.983 15.3599 180.983 16.6799 180.983 18.0799V23.5999H178.434V18.5599C178.434 17.7199 178.434 16.6799 177.989 15.9599C177.625 15.3999 176.937 15.0799 176.29 15.0799C175.602 15.0799 174.833 15.4399 174.469 16.0399C173.984 16.7599 174.024 17.9199 174.024 18.7999V23.5999H171.435V12.8799H171.394ZM183.047 9.31995H185.636V17.9599L189.116 12.9199H192.191L188.266 18.1599L192.839 23.5999H189.359L185.636 18.5999V23.5999H183.047V9.31995ZM81.4486 35.1199C81.4486 38.2799 78.8591 40.7999 75.6626 40.7999C72.5471 40.7999 69.9171 38.2399 69.9171 35.1199C69.9171 31.9199 72.5066 29.3999 75.7435 29.3999C78.9804 29.3999 81.4486 32.0399 81.4486 35.1199ZM73.4372 32.9199C72.8303 33.5199 72.5471 34.2799 72.5471 35.1599C72.5471 36.8799 73.8823 38.3199 75.6626 38.3199C77.4834 38.3199 78.8591 36.9599 78.8591 35.1599C78.8591 33.3999 77.4834 31.9599 75.6626 31.9599C74.8534 31.9199 73.9632 32.3199 73.4372 32.9199ZM82.8647 32.0399H81.9341V29.7599H82.8647C82.9052 27.7199 84.1999 25.9199 86.3849 25.9199L87.0727 25.9599V28.5199C85.9802 28.5199 85.4947 28.5999 85.4138 29.7599H86.9109V32.0399H85.4138V40.4799H82.8243V32.0399H82.8647ZM93.587 26.1999H96.1765V34.7999L99.6562 29.7599H102.731L98.8065 34.9999L103.379 40.4799H99.8989L96.1765 35.4799V40.4799H93.587V26.1999ZM115.8 40.4799H113.413V39.0399C112.604 40.1599 111.066 40.8399 109.691 40.8399C107.991 40.8399 106.656 40.1599 105.685 39.0399C104.835 37.9999 104.35 36.6399 104.35 35.1199C104.35 33.6399 104.754 32.3999 105.725 31.2799C106.818 30.0399 108.153 29.4399 109.771 29.4399C111.269 29.4399 112.563 30.0799 113.413 31.2799V29.7599H115.8V40.4799ZM110.217 31.9199C108.315 31.9199 106.98 33.3199 106.98 35.1999C106.98 36.9599 108.436 38.3199 110.176 38.2799C112.037 38.2799 113.332 36.9199 113.332 35.0799C113.332 33.3199 112.037 31.9199 110.217 31.9199ZM117.621 29.7599H120.008V30.7599C120.696 29.8799 121.869 29.4399 123.002 29.4399C124.135 29.4399 125.309 29.9599 126.077 30.7599C126.158 30.8399 126.28 30.9599 126.361 31.0799C127.21 32.2399 127.21 33.5599 127.21 34.9599V40.5199H124.621V35.4399C124.621 34.5999 124.621 33.5599 124.176 32.8399C123.812 32.2799 123.124 31.9599 122.436 31.9599C121.748 31.9599 120.979 32.3199 120.615 32.9199C120.13 33.6399 120.17 34.7999 120.17 35.6799V40.5199H117.581V29.7599H117.621ZM133.603 32.7199C133.522 32.1999 133.077 31.9599 132.592 31.9599C132.025 31.9599 131.54 32.2799 131.58 32.8799C131.58 33.5999 132.511 33.7599 133.037 33.9199C134.777 34.4399 136.435 35.0399 136.435 37.1599C136.435 38.1599 136.071 39.0399 135.343 39.7199C134.615 40.3599 133.522 40.8399 132.511 40.8399C130.285 40.8399 128.667 39.3199 128.586 37.1199H131.256C131.378 37.7999 131.863 38.3199 132.632 38.3199C133.279 38.3199 133.846 37.9599 133.846 37.2799C133.846 36.3999 132.713 36.1199 132.025 35.8799C131.216 35.6399 130.73 35.4799 130.083 34.9599C129.395 34.3599 129.031 33.6399 129.031 32.7199C129.031 30.7199 130.771 29.3999 132.673 29.3999C134.493 29.3999 136.193 30.8399 136.193 32.6799H133.603V32.7199ZM148.736 40.4799H146.348V39.0399C145.539 40.1599 144.002 40.8399 142.626 40.8399C140.927 40.8399 139.591 40.1599 138.62 39.0399C137.771 37.9999 137.285 36.6399 137.285 35.1199C137.285 33.6399 137.69 32.3999 138.661 31.2799C139.753 30.0399 141.089 29.4399 142.707 29.4399C144.204 29.4399 145.499 30.0799 146.348 31.2799V29.7599H148.736V40.4799ZM143.152 31.9199C141.25 31.9199 139.915 33.3199 139.915 35.1999C139.915 36.9599 141.372 38.3199 143.112 38.2799C144.973 38.2799 146.268 36.9199 146.268 35.0799C146.268 33.3199 145.013 31.9199 143.152 31.9199ZM154.886 32.7199C154.805 32.1999 154.36 31.9599 153.874 31.9599C153.308 31.9599 152.822 32.2799 152.863 32.8799C152.863 33.5999 153.793 33.7599 154.319 33.9199C156.059 34.4399 157.718 35.0399 157.718 37.1599C157.718 38.1599 157.354 39.0399 156.626 39.7199C155.897 40.3599 154.805 40.8399 153.793 40.8399C151.568 40.8399 149.95 39.3199 149.869 37.1199H152.539C152.66 37.7999 153.146 38.3199 153.915 38.3199C154.562 38.3199 155.129 37.9599 155.129 37.2799C155.129 36.3999 153.996 36.1199 153.308 35.8799C152.499 35.6399 152.013 35.4799 151.366 34.9599C150.678 34.3599 150.314 33.6399 150.314 32.7199C150.314 30.7199 152.054 29.3999 153.955 29.3999C155.736 29.3999 157.475 30.8399 157.475 32.6799H154.886V32.7199ZM175.157 36.9999C174.469 39.2799 172.163 40.8399 169.776 40.8399C168.319 40.8399 166.822 40.2399 165.729 39.2399C164.556 38.1199 163.99 36.6399 163.99 35.0799C163.99 31.9599 166.62 29.4399 169.776 29.4399C172.163 29.4399 174.51 31.0399 175.157 33.3599H172.244C171.677 32.3999 170.868 31.9599 169.735 31.9599C167.874 31.9599 166.62 33.3199 166.62 35.1199C166.62 36.9999 167.995 38.3599 169.897 38.3599C170.868 38.3599 171.758 37.8399 172.284 37.0399H175.157V36.9999ZM176.897 26.1999H179.486V28.5199H176.897V26.1999ZM176.897 29.7599H179.486V40.4799H176.897V29.7599ZM181.874 32.0399H180.619V29.7599H181.874V26.1999H184.463V29.7599H186.041V32.0399H184.463V40.4799H181.874V32.0399ZM190.289 39.4799L186.324 29.7599H189.278L191.746 36.6399L194.336 29.7599H197.289L191.058 44.0399H188.266L190.289 39.4799Z" fill="#F6F6F6"/>
</svg>
