<svg width="172" height="52" viewBox="0 0 172 52" fill="none" xmlns="http://www.w3.org/2000/svg">
<path d="M167.57 29.1055V26.2891H168.27L169.043 28.4922L169.84 26.2891H170.52V29.1055H170.043V27.4883C170.043 27.4284 170.046 27.3346 170.051 27.207C170.056 27.0794 170.06 26.9779 170.062 26.9023H170.035L169.211 29.1055H168.812L168.027 26.9023H167.996C168.001 26.9935 168.005 27.0951 168.008 27.207C168.013 27.3164 168.016 27.3971 168.016 27.4492V29.1055H167.57ZM165.938 29.1055V26.6953H165.121V26.2891H167.234V26.6953H166.41V29.1055H165.938Z" fill="#888888"/>
<path d="M54.9746 24H53.1484V8.29492H61.8926V9.90625H54.9746V15.6641H61.4736V17.2646H54.9746V24ZM78.7643 24L76.8307 19.0156H70.5357L68.6129 24H66.7652L72.9098 8.23047H74.5533L80.6549 24H78.7643ZM76.2828 17.3936L74.4459 12.4414C74.4029 12.3125 74.3313 12.1012 74.2311 11.8076C74.138 11.514 74.0413 11.2096 73.941 10.8945C73.8408 10.5794 73.7584 10.3252 73.6939 10.1318C73.6223 10.4255 73.5436 10.7191 73.4576 11.0127C73.3788 11.2992 73.3001 11.5677 73.2213 11.8184C73.1425 12.0618 73.0745 12.2695 73.0172 12.4414L71.148 17.3936H76.2828ZM87.2355 24V8.29492H89.0617V22.3672H96.0334V24H87.2355ZM103.13 24V8.29492H104.956V22.3672H111.928V24H103.13ZM127.886 19.8213C127.886 20.7523 127.653 21.5472 127.188 22.2061C126.73 22.8577 126.085 23.3555 125.254 23.6992C124.424 24.043 123.446 24.2148 122.322 24.2148C121.727 24.2148 121.165 24.1862 120.635 24.1289C120.105 24.0716 119.618 23.9893 119.174 23.8818C118.73 23.7744 118.34 23.6419 118.003 23.4844V21.7334C118.54 21.9554 119.196 22.1631 119.969 22.3564C120.743 22.5426 121.552 22.6357 122.397 22.6357C123.185 22.6357 123.851 22.5319 124.395 22.3242C124.939 22.1094 125.351 21.805 125.63 21.4111C125.917 21.0101 126.06 20.5303 126.06 19.9717C126.06 19.4346 125.942 18.987 125.705 18.6289C125.469 18.2637 125.075 17.9342 124.524 17.6406C123.98 17.3398 123.235 17.0212 122.289 16.6846C121.623 16.4482 121.036 16.1904 120.528 15.9111C120.019 15.6247 119.593 15.3024 119.249 14.9443C118.906 14.5863 118.644 14.1709 118.465 13.6982C118.293 13.2256 118.207 12.6849 118.207 12.0762C118.207 11.2383 118.419 10.5221 118.841 9.92773C119.271 9.32617 119.862 8.86784 120.614 8.55273C121.373 8.23047 122.243 8.06934 123.224 8.06934C124.062 8.06934 124.835 8.14811 125.544 8.30566C126.26 8.46322 126.916 8.67448 127.51 8.93945L126.941 10.5078C126.375 10.2715 125.774 10.0745 125.136 9.91699C124.506 9.75944 123.854 9.68066 123.181 9.68066C122.508 9.68066 121.939 9.78092 121.473 9.98145C121.015 10.1748 120.664 10.4505 120.42 10.8086C120.177 11.1667 120.055 11.5928 120.055 12.0869C120.055 12.6383 120.17 13.0967 120.399 13.4619C120.635 13.8271 121.008 14.153 121.516 14.4395C122.032 14.7188 122.712 15.0124 123.557 15.3203C124.481 15.6569 125.265 16.015 125.91 16.3945C126.554 16.7669 127.045 17.2253 127.381 17.7695C127.718 18.3066 127.886 18.9906 127.886 19.8213Z" fill="#888888"/>
<path d="M54.9746 42H53.1484V26.2949H61.8926V27.9062H54.9746V33.6641H61.4736V35.2646H54.9746V42ZM68.9137 42V26.2949H70.7398V42H68.9137ZM91.7365 42H89.6311L81.0695 28.8086H80.9836C81.0051 29.1595 81.0301 29.5605 81.0588 30.0117C81.0874 30.4557 81.1089 30.932 81.1232 31.4404C81.1447 31.9417 81.1555 32.4538 81.1555 32.9766V42H79.4582V26.2949H81.5529L90.0822 39.4434H90.1574C90.1431 39.1927 90.1252 38.8382 90.1037 38.3799C90.0822 37.9144 90.0607 37.4167 90.0393 36.8867C90.0249 36.3496 90.0178 35.8519 90.0178 35.3936V26.2949H91.7365V42ZM105.246 42H103.409V27.9062H98.4676V26.2949H110.166V27.9062H105.246V42ZM125.684 42H116.94V26.2949H125.684V27.9062H118.766V32.9873H125.287V34.5771H118.766V40.3887H125.684V42ZM140.278 27.6807C139.412 27.6807 138.631 27.8311 137.937 28.1318C137.249 28.4255 136.662 28.8551 136.175 29.4209C135.695 29.9795 135.326 30.6562 135.068 31.4512C134.811 32.2461 134.682 33.1413 134.682 34.1367C134.682 35.4544 134.886 36.6003 135.294 37.5742C135.709 38.541 136.325 39.2894 137.142 39.8193C137.965 40.3493 138.993 40.6143 140.225 40.6143C140.926 40.6143 141.585 40.557 142.201 40.4424C142.824 40.3206 143.429 40.1702 144.017 39.9912V41.5811C143.444 41.7959 142.842 41.9535 142.212 42.0537C141.582 42.1611 140.833 42.2148 139.967 42.2148C138.37 42.2148 137.034 41.8854 135.96 41.2266C134.893 40.5605 134.091 39.6224 133.554 38.4121C133.024 37.2018 132.759 35.7731 132.759 34.126C132.759 32.9372 132.924 31.8522 133.253 30.8711C133.59 29.8828 134.076 29.0306 134.714 28.3145C135.358 27.5983 136.146 27.0469 137.077 26.6602C138.015 26.2663 139.09 26.0693 140.3 26.0693C141.095 26.0693 141.861 26.1481 142.599 26.3057C143.336 26.4632 144.002 26.6888 144.597 26.9824L143.866 28.5293C143.365 28.3001 142.813 28.1032 142.212 27.9385C141.618 27.7666 140.973 27.6807 140.278 27.6807ZM163.724 42H161.898V34.5986H153.648V42H151.822V26.2949H153.648V32.9873H161.898V26.2949H163.724V42Z" fill="#888888"/>
<path d="M54.2227 50L53.7949 48.8105H52.1572L51.7383 50H51L52.6025 45.6992H53.3643L54.9668 50H54.2227ZM53.6104 48.207L53.209 47.041C53.1797 46.9629 53.1387 46.8398 53.0859 46.6719C53.0352 46.5039 53 46.3809 52.9805 46.3027C52.9277 46.543 52.8506 46.8057 52.749 47.0908L52.3623 48.207H53.6104ZM59.5131 46.2559C59.1107 46.2559 58.7943 46.3984 58.5639 46.6836C58.3334 46.9688 58.2182 47.3623 58.2182 47.8643C58.2182 48.3896 58.3285 48.7871 58.5492 49.0566C58.7719 49.3262 59.0932 49.4609 59.5131 49.4609C59.6947 49.4609 59.8705 49.4434 60.0404 49.4082C60.2104 49.3711 60.3871 49.3242 60.5707 49.2676V49.8682C60.2348 49.9951 59.8539 50.0586 59.4281 50.0586C58.8012 50.0586 58.3197 49.8691 57.9838 49.4902C57.6479 49.1094 57.4799 48.5654 57.4799 47.8584C57.4799 47.4131 57.5609 47.0234 57.723 46.6895C57.8871 46.3555 58.1234 46.0996 58.432 45.9219C58.7406 45.7441 59.1029 45.6553 59.5189 45.6553C59.9564 45.6553 60.3607 45.7471 60.7318 45.9307L60.4799 46.5137C60.3354 46.4453 60.182 46.3857 60.0199 46.335C59.8598 46.2822 59.6908 46.2559 59.5131 46.2559ZM64.2164 50H61.7936V45.7168H64.2164V46.3086H62.4937V47.4746H64.108V48.0605H62.4937V49.4053H64.2164V50ZM69.0135 50H68.1551L66.0486 46.5869H66.0252L66.0398 46.7773C66.0672 47.1406 66.0809 47.4727 66.0809 47.7734V50H65.4451V45.7168H66.2947L68.3953 49.1123H68.4129C68.409 49.0674 68.4012 48.9043 68.3895 48.623C68.3777 48.3398 68.3719 48.1191 68.3719 47.9609V45.7168H69.0135V50ZM71.9238 50H71.2236V46.3174H69.9639V45.7168H73.1836V46.3174H71.9238V50ZM74.843 47.709H75.3293C75.6555 47.709 75.8918 47.6484 76.0383 47.5273C76.1848 47.4062 76.258 47.2266 76.258 46.9883C76.258 46.7461 76.1789 46.5723 76.0207 46.4668C75.8625 46.3613 75.6242 46.3086 75.3059 46.3086H74.843V47.709ZM74.843 48.2891V50H74.1428V45.7168H75.3527C75.9055 45.7168 76.3146 45.8203 76.5803 46.0273C76.8459 46.2344 76.9787 46.5469 76.9787 46.9648C76.9787 47.498 76.7014 47.8779 76.1467 48.1045L77.3566 50H76.5598L75.5344 48.2891H74.843ZM80.9379 50L80.5102 48.8105H78.8725L78.4535 50H77.7152L79.3178 45.6992H80.0795L81.682 50H80.9379ZM80.3256 48.207L79.9242 47.041C79.8949 46.9629 79.8539 46.8398 79.8012 46.6719C79.7504 46.5039 79.7152 46.3809 79.6957 46.3027C79.643 46.543 79.5658 46.8057 79.4643 47.0908L79.0775 48.207H80.3256ZM82.5475 50V45.7168H83.2477V49.3994H85.0611V50H82.5475ZM90.7939 47.0117C90.7939 47.459 90.6475 47.8018 90.3545 48.04C90.0615 48.2783 89.6445 48.3975 89.1035 48.3975H88.6582V50H87.958V45.7168H89.1914C89.7266 45.7168 90.127 45.8262 90.3926 46.0449C90.6602 46.2637 90.7939 46.5859 90.7939 47.0117ZM88.6582 47.8086H89.0303C89.3896 47.8086 89.6533 47.7461 89.8213 47.6211C89.9893 47.4961 90.0732 47.3008 90.0732 47.0352C90.0732 46.7891 89.998 46.6055 89.8477 46.4844C89.6973 46.3633 89.4629 46.3027 89.1445 46.3027H88.6582V47.8086ZM94.6066 50L94.1789 48.8105H92.5412L92.1223 50H91.384L92.9865 45.6992H93.7482L95.3508 50H94.6066ZM93.9943 48.207L93.593 47.041C93.5637 46.9629 93.5227 46.8398 93.4699 46.6719C93.4191 46.5039 93.384 46.3809 93.3645 46.3027C93.3117 46.543 93.2346 46.8057 93.133 47.0908L92.7463 48.207H93.9943ZM97.4262 47.6709L98.4398 45.7168H99.2016L97.7748 48.3389V50H97.0717V48.3623L95.6508 45.7168H96.4125L97.4262 47.6709ZM101.919 50L100.676 46.4229H100.653C100.686 46.9541 100.703 47.4521 100.703 47.917V50H100.067V45.7168H101.054L102.244 49.124H102.261L103.486 45.7168H104.476V50H103.802V47.8818C103.802 47.6689 103.807 47.3916 103.817 47.0498C103.829 46.708 103.838 46.501 103.846 46.4287H103.823L102.537 50H101.919ZM108.327 50H105.904V45.7168H108.327V46.3086H106.604V47.4746H108.219V48.0605H106.604V49.4053H108.327V50ZM113.124 50H112.266L110.159 46.5869H110.136L110.15 46.7773C110.178 47.1406 110.191 47.4727 110.191 47.7734V50H109.556V45.7168H110.405L112.506 49.1123H112.523C112.52 49.0674 112.512 48.9043 112.5 48.623C112.488 48.3398 112.482 48.1191 112.482 47.9609V45.7168H113.124V50ZM116.034 50H115.334V46.3174H114.074V45.7168H117.294V46.3174H116.034V50ZM120.723 48.8369C120.723 49.2178 120.585 49.5166 120.31 49.7334C120.035 49.9502 119.655 50.0586 119.17 50.0586C118.686 50.0586 118.289 49.9834 117.981 49.833V49.1709C118.176 49.2627 118.383 49.335 118.602 49.3877C118.823 49.4404 119.028 49.4668 119.217 49.4668C119.495 49.4668 119.699 49.4141 119.829 49.3086C119.962 49.2031 120.029 49.0615 120.029 48.8838C120.029 48.7236 119.968 48.5879 119.847 48.4766C119.726 48.3652 119.476 48.2334 119.097 48.0811C118.706 47.9229 118.431 47.7422 118.271 47.5391C118.111 47.3359 118.031 47.0918 118.031 46.8066C118.031 46.4492 118.158 46.168 118.412 45.9629C118.665 45.7578 119.006 45.6553 119.434 45.6553C119.844 45.6553 120.252 45.7451 120.659 45.9248L120.436 46.4961C120.055 46.3359 119.715 46.2559 119.416 46.2559C119.19 46.2559 119.018 46.3057 118.901 46.4053C118.784 46.5029 118.725 46.6328 118.725 46.7949C118.725 46.9062 118.748 47.002 118.795 47.082C118.842 47.1602 118.919 47.2344 119.027 47.3047C119.134 47.375 119.328 47.4678 119.607 47.583C119.921 47.7139 120.152 47.8359 120.298 47.9492C120.445 48.0625 120.552 48.1904 120.621 48.333C120.689 48.4756 120.723 48.6436 120.723 48.8369ZM126.368 50L125.94 48.8105H124.303L123.884 50H123.145L124.748 45.6992H125.51L127.112 50H126.368ZM125.756 48.207L125.354 47.041C125.325 46.9629 125.284 46.8398 125.231 46.6719C125.18 46.5039 125.145 46.3809 125.126 46.3027C125.073 46.543 124.996 46.8057 124.894 47.0908L124.508 48.207H125.756ZM129.8 46.2559C129.397 46.2559 129.081 46.3984 128.851 46.6836C128.62 46.9688 128.505 47.3623 128.505 47.8643C128.505 48.3896 128.615 48.7871 128.836 49.0566C129.059 49.3262 129.38 49.4609 129.8 49.4609C129.981 49.4609 130.157 49.4434 130.327 49.4082C130.497 49.3711 130.674 49.3242 130.857 49.2676V49.8682C130.521 49.9951 130.141 50.0586 129.715 50.0586C129.088 50.0586 128.606 49.8691 128.271 49.4902C127.935 49.1094 127.767 48.5654 127.767 47.8584C127.767 47.4131 127.848 47.0234 128.01 46.6895C128.174 46.3555 128.41 46.0996 128.719 45.9219C129.027 45.7441 129.39 45.6553 129.806 45.6553C130.243 45.6553 130.647 45.7471 131.019 45.9307L130.767 46.5137C130.622 46.4453 130.469 46.3857 130.307 46.335C130.146 46.2822 129.978 46.2559 129.8 46.2559ZM133.903 46.2559C133.5 46.2559 133.184 46.3984 132.953 46.6836C132.723 46.9688 132.608 47.3623 132.608 47.8643C132.608 48.3896 132.718 48.7871 132.939 49.0566C133.161 49.3262 133.483 49.4609 133.903 49.4609C134.084 49.4609 134.26 49.4434 134.43 49.4082C134.6 49.3711 134.777 49.3242 134.96 49.2676V49.8682C134.624 49.9951 134.243 50.0586 133.818 50.0586C133.191 50.0586 132.709 49.8691 132.373 49.4902C132.037 49.1094 131.869 48.5654 131.869 47.8584C131.869 47.4131 131.95 47.0234 132.113 46.6895C132.277 46.3555 132.513 46.0996 132.821 45.9219C133.13 45.7441 133.492 45.6553 133.908 45.6553C134.346 45.6553 134.75 45.7471 135.121 45.9307L134.869 46.5137C134.725 46.4453 134.571 46.3857 134.409 46.335C134.249 46.2822 134.08 46.2559 133.903 46.2559ZM138.606 50H136.183V45.7168H138.606V46.3086H136.883V47.4746H138.497V48.0605H136.883V49.4053H138.606V50ZM139.835 50V45.7168H140.535V49.3994H142.348V50H139.835ZM145.809 50H143.387V45.7168H145.809V46.3086H144.087V47.4746H145.701V48.0605H144.087V49.4053H145.809V50ZM147.738 47.709H148.225C148.551 47.709 148.787 47.6484 148.934 47.5273C149.08 47.4062 149.153 47.2266 149.153 46.9883C149.153 46.7461 149.074 46.5723 148.916 46.4668C148.758 46.3613 148.52 46.3086 148.201 46.3086H147.738V47.709ZM147.738 48.2891V50H147.038V45.7168H148.248C148.801 45.7168 149.21 45.8203 149.476 46.0273C149.741 46.2344 149.874 46.5469 149.874 46.9648C149.874 47.498 149.597 47.8779 149.042 48.1045L150.252 50H149.455L148.43 48.2891H147.738ZM153.833 50L153.405 48.8105H151.768L151.349 50H150.611L152.213 45.6992H152.975L154.577 50H153.833ZM153.221 48.207L152.82 47.041C152.79 46.9629 152.749 46.8398 152.696 46.6719C152.646 46.5039 152.611 46.3809 152.591 46.3027C152.538 46.543 152.461 46.8057 152.36 47.0908L151.973 48.207H153.221ZM156.922 50H156.222V46.3174H154.962V45.7168H158.182V46.3174H156.922V50ZM162.944 47.8525C162.944 48.5498 162.769 49.0918 162.42 49.4785C162.072 49.8652 161.579 50.0586 160.94 50.0586C160.294 50.0586 159.796 49.8672 159.449 49.4844C159.103 49.0996 158.93 48.5537 158.93 47.8467C158.93 47.1396 159.104 46.5967 159.452 46.2178C159.801 45.8389 160.299 45.6494 160.946 45.6494C161.583 45.6494 162.075 45.8418 162.422 46.2266C162.77 46.6113 162.944 47.1533 162.944 47.8525ZM159.674 47.8525C159.674 48.3799 159.781 48.7803 159.994 49.0537C160.207 49.3252 160.522 49.4609 160.94 49.4609C161.356 49.4609 161.67 49.3262 161.88 49.0566C162.093 48.7871 162.2 48.3857 162.2 47.8525C162.2 47.3271 162.094 46.9287 161.883 46.6572C161.674 46.3857 161.362 46.25 160.946 46.25C160.526 46.25 160.209 46.3857 159.994 46.6572C159.781 46.9287 159.674 47.3271 159.674 47.8525ZM164.864 47.709H165.35C165.677 47.709 165.913 47.6484 166.059 47.5273C166.206 47.4062 166.279 47.2266 166.279 46.9883C166.279 46.7461 166.2 46.5723 166.042 46.4668C165.884 46.3613 165.645 46.3086 165.327 46.3086H164.864V47.709ZM164.864 48.2891V50H164.164V45.7168H165.374C165.927 45.7168 166.336 45.8203 166.601 46.0273C166.867 46.2344 167 46.5469 167 46.9648C167 47.498 166.722 47.8779 166.168 48.1045L167.378 50H166.581L165.555 48.2891H164.864Z" fill="#888888"/>
<path d="M0 10H22V21H6.84444" stroke="#888888" stroke-width="3"/>
<path d="M49 10H27V21H42.1556" stroke="#888888" stroke-width="3"/>
<path d="M7 27H22V40" stroke="#888888" stroke-width="3"/>
<path d="M42 27H27V40" stroke="#888888" stroke-width="3"/>
</svg>
