<svg width="111" height="40" viewBox="0 0 111 40" fill="none" xmlns="http://www.w3.org/2000/svg">
<path d="M49.4276 28V17.0909H51.4801V18.8239H51.5938C51.7926 18.2367 52.143 17.7751 52.6449 17.4389C53.1515 17.098 53.7244 16.9276 54.3636 16.9276C54.4962 16.9276 54.6525 16.9323 54.8324 16.9418C55.017 16.9512 55.1615 16.9631 55.2656 16.9773V19.0085C55.1804 18.9848 55.0289 18.9588 54.8111 18.9304C54.5933 18.8973 54.3755 18.8807 54.1577 18.8807C53.6558 18.8807 53.2083 18.9872 52.8153 19.2003C52.4271 19.4086 52.1193 19.6998 51.892 20.0739C51.6648 20.4432 51.5511 20.8646 51.5511 21.3381V28H49.4276ZM57.1033 28V17.0909H59.2269V28H57.1033ZM58.1758 15.4077C57.8065 15.4077 57.4892 15.2846 57.2241 15.0384C56.9637 14.7874 56.8335 14.4891 56.8335 14.1435C56.8335 13.7931 56.9637 13.4948 57.2241 13.2486C57.4892 12.9976 57.8065 12.8722 58.1758 12.8722C58.5451 12.8722 58.86 12.9976 59.1204 13.2486C59.3855 13.4948 59.5181 13.7931 59.5181 14.1435C59.5181 14.4891 59.3855 14.7874 59.1204 15.0384C58.86 15.2846 58.5451 15.4077 58.1758 15.4077ZM67.2756 17.0909V18.7955H61.1108V17.0909H67.2756ZM62.8011 28V15.8267C62.8011 15.1449 62.9503 14.5791 63.2486 14.1293C63.5469 13.6747 63.9422 13.3362 64.4347 13.1136C64.9271 12.8864 65.4621 12.7727 66.0398 12.7727C66.4659 12.7727 66.8305 12.8082 67.1335 12.8793C67.4366 12.9455 67.6615 13.0071 67.8082 13.0639L67.3111 14.7827C67.2116 14.7543 67.0838 14.7211 66.9276 14.6832C66.7713 14.6406 66.5819 14.6193 66.3594 14.6193C65.8433 14.6193 65.474 14.7472 65.2514 15.0028C65.0336 15.2585 64.9247 15.6278 64.9247 16.1108V28H62.8011ZM74.5589 17.0909V18.7955H68.6001V17.0909H74.5589ZM70.1982 14.4773H72.3217V24.7969C72.3217 25.2088 72.3833 25.5189 72.5064 25.7273C72.6295 25.9309 72.7881 26.0705 72.9822 26.1463C73.1811 26.2173 73.3965 26.2528 73.6286 26.2528C73.799 26.2528 73.9482 26.241 74.076 26.2173C74.2038 26.1937 74.3033 26.1747 74.3743 26.1605L74.7578 27.9148C74.6347 27.9621 74.4595 28.0095 74.2322 28.0568C74.005 28.1089 73.7209 28.1373 73.38 28.142C72.8213 28.1515 72.3004 28.0521 71.8175 27.8438C71.3345 27.6354 70.9439 27.3134 70.6456 26.8778C70.3473 26.4422 70.1982 25.8954 70.1982 25.2372V14.4773ZM76.908 32.0909V17.0909H78.9819V18.8594H79.1594C79.2826 18.6321 79.4601 18.3693 79.6921 18.071C79.9241 17.7727 80.2461 17.5123 80.658 17.2898C81.07 17.0625 81.6145 16.9489 82.2915 16.9489C83.1722 16.9489 83.9582 17.1714 84.6495 17.6165C85.3408 18.0616 85.8829 18.7031 86.2759 19.5412C86.6737 20.3793 86.8725 21.3878 86.8725 22.5668C86.8725 23.7457 86.676 24.7566 86.283 25.5994C85.89 26.4375 85.3503 27.0838 84.6637 27.5384C83.9772 27.9882 83.1935 28.2131 82.3129 28.2131C81.65 28.2131 81.1078 28.1018 80.6864 27.8793C80.2698 27.6567 79.9431 27.3963 79.7063 27.098C79.4696 26.7997 79.2873 26.5346 79.1594 26.3026H79.0316V32.0909H76.908ZM78.989 22.5455C78.989 23.3125 79.1003 23.9848 79.3228 24.5625C79.5453 25.1402 79.8673 25.5923 80.2887 25.919C80.7101 26.241 81.2262 26.402 81.837 26.402C82.4715 26.402 83.0018 26.2339 83.4279 25.8977C83.854 25.5568 84.176 25.0952 84.3938 24.5128C84.6164 23.9304 84.7276 23.2746 84.7276 22.5455C84.7276 21.8258 84.6187 21.1795 84.4009 20.6065C84.1879 20.0336 83.8659 19.5814 83.435 19.25C83.0089 18.9186 82.4762 18.7528 81.837 18.7528C81.2215 18.7528 80.7006 18.9115 80.2745 19.2287C79.8531 19.5459 79.5335 19.9886 79.3157 20.5568C79.0979 21.125 78.989 21.7879 78.989 22.5455ZM92.4265 28.2415C91.7352 28.2415 91.1102 28.1136 90.5515 27.858C89.9928 27.5975 89.5501 27.2211 89.2234 26.7287C88.9014 26.2363 88.7404 25.6326 88.7404 24.9176C88.7404 24.3021 88.8588 23.7955 89.0955 23.3977C89.3323 23 89.6519 22.6851 90.0543 22.4531C90.4568 22.2211 90.9066 22.0459 91.4038 21.9276C91.9009 21.8092 92.4076 21.7192 92.9237 21.6577C93.5771 21.5819 94.1074 21.5204 94.5146 21.473C94.9218 21.4209 95.2177 21.3381 95.4023 21.2244C95.587 21.1108 95.6793 20.9261 95.6793 20.6705V20.6207C95.6793 20.0005 95.5041 19.5199 95.1538 19.179C94.8081 18.8381 94.292 18.6676 93.6055 18.6676C92.8905 18.6676 92.3271 18.8262 91.9151 19.1435C91.5079 19.456 91.2262 19.804 91.07 20.1875L89.0742 19.733C89.311 19.0701 89.6566 18.535 90.1112 18.1278C90.5704 17.7159 91.0984 17.4176 91.695 17.233C92.2915 17.0436 92.9189 16.9489 93.5771 16.9489C94.0127 16.9489 94.4743 17.0009 94.962 17.1051C95.4544 17.2045 95.9137 17.3892 96.3398 17.6591C96.7707 17.929 97.1235 18.3149 97.3981 18.8168C97.6727 19.3139 97.81 19.9602 97.81 20.7557V28H95.7362V26.5085H95.6509C95.5136 26.7831 95.3076 27.053 95.033 27.3182C94.7584 27.5833 94.4057 27.8035 93.9748 27.9787C93.5439 28.1539 93.0278 28.2415 92.4265 28.2415ZM92.8881 26.5369C93.4753 26.5369 93.9772 26.4209 94.3938 26.1889C94.8152 25.9569 95.1348 25.6539 95.3526 25.2798C95.5752 24.901 95.6864 24.4962 95.6864 24.0653V22.6591C95.6107 22.7348 95.4639 22.8059 95.2461 22.8722C95.033 22.9337 94.7892 22.9882 94.5146 23.0355C94.2399 23.0781 93.9724 23.1184 93.712 23.1562C93.4516 23.1894 93.2338 23.2178 93.0586 23.2415C92.6467 23.2936 92.2702 23.3812 91.9293 23.5043C91.5932 23.6274 91.3233 23.8049 91.1197 24.0369C90.9208 24.2642 90.8214 24.5672 90.8214 24.946C90.8214 25.4716 91.0155 25.8693 91.4038 26.1392C91.792 26.4044 92.2868 26.5369 92.8881 26.5369ZM101.59 32.0909C101.273 32.0909 100.984 32.0649 100.724 32.0128C100.463 31.9654 100.269 31.9134 100.141 31.8565L100.653 30.1165C101.041 30.2206 101.387 30.2656 101.69 30.2514C101.993 30.2372 102.26 30.1236 102.492 29.9105C102.729 29.6974 102.937 29.3494 103.117 28.8665L103.38 28.142L99.3885 17.0909H101.661L104.424 25.5568H104.538L107.3 17.0909H109.58L105.085 29.456C104.876 30.0241 104.611 30.5047 104.289 30.8977C103.967 31.2955 103.584 31.5938 103.138 31.7926C102.693 31.9915 102.177 32.0909 101.59 32.0909Z" fill="black"/>
<rect width="40" height="40" rx="12" fill="#5B3DE6"/>
<g clip-path="url(#clip0_4_154)">
<path d="M14 8V17.9189L17.7178 21.7537V16.997L20.4051 19.7256L14 26.1416V31.4882L25.7424 19.7625L14 8Z" fill="white"/>
<path d="M22.724 23.6711L19.7056 26.7316L26.0001 33.0001V26.916L22.724 23.6711ZM25.3743 31.562L20.5522 26.7316L22.724 24.5561L25.3743 27.211V31.562Z" fill="white"/>
</g>
<defs>
<clipPath id="clip0_4_154">
<rect width="12" height="25" fill="white" transform="translate(14 8)"/>
</clipPath>
</defs>
</svg>
