<svg width="24" height="17" viewBox="0 0 24 17" fill="none" xmlns="http://www.w3.org/2000/svg">
<path d="M11.8833 0.909634C11.9563 0.871096 12.0437 0.871095 12.1167 0.909634L18.4718 4.26374C18.5467 4.30324 18.5757 4.34713 18.5901 4.38252C18.6073 4.42501 18.6133 4.48259 18.5978 4.54495C18.5824 4.6073 18.5502 4.65546 18.5152 4.68499C18.4859 4.70958 18.4398 4.73484 18.3551 4.73484H5.64486C5.56024 4.73484 5.51407 4.70958 5.48484 4.68499C5.44975 4.65546 5.41764 4.6073 5.40219 4.54495C5.38675 4.48259 5.39267 4.42501 5.40992 4.38252C5.42429 4.34713 5.45333 4.30324 5.52817 4.26374L11.8833 0.909634Z" stroke="white" stroke-width="1.5"/>
<path d="M12 12.7535V7.63431" stroke="white" stroke-width="1.5" stroke-linecap="round"/>
<path d="M18 12.7535V7.63431" stroke="white" stroke-width="1.5" stroke-linecap="round"/>
<path d="M6 12.7535V7.63431" stroke="white" stroke-width="1.5" stroke-linecap="round"/>
<path d="M4 16H20" stroke="white" stroke-width="1.5" stroke-linecap="round"/>
</svg>
