<svg width="50" height="50" viewBox="0 0 50 50" fill="none" xmlns="http://www.w3.org/2000/svg">
<circle cx="25" cy="25" r="24" stroke="#4A4A4A" stroke-width="2"/>
<path d="M36.1836 20.3813C36.171 19.4346 35.9938 18.4973 35.6598 17.6113C35.3703 16.864 34.928 16.1853 34.3613 15.6186C33.7946 15.0519 33.1159 14.6096 32.3686 14.3201C31.494 13.9918 30.5701 13.8142 29.6361 13.7951C28.4336 13.7413 28.0523 13.7263 24.9998 13.7263C21.9473 13.7263 21.5561 13.7263 20.3623 13.7951C19.4288 13.8144 18.5053 13.9919 17.6311 14.3201C16.8837 14.6094 16.2049 15.0516 15.6381 15.6184C15.0714 16.1851 14.6292 16.8639 14.3398 17.6113C14.0109 18.4852 13.8337 19.409 13.8161 20.3426C13.7623 21.5463 13.7461 21.9276 13.7461 24.9801C13.7461 28.0326 13.7461 28.4226 13.8161 29.6176C13.8348 30.5526 14.0111 31.4751 14.3398 32.3513C14.6297 33.0985 15.0722 33.777 15.6391 34.3435C16.2061 34.91 16.8849 35.352 17.6323 35.6413C18.5041 35.9828 19.4278 36.173 20.3636 36.2038C21.5673 36.2576 21.9486 36.2738 25.0011 36.2738C28.0536 36.2738 28.4448 36.2738 29.6386 36.2038C30.5725 36.1854 31.4965 36.0083 32.3711 35.6801C33.1182 35.3902 33.7967 34.9478 34.3634 34.3811C34.9301 33.8144 35.3724 33.1359 35.6623 32.3888C35.9911 31.5138 36.1673 30.5913 36.1861 29.6551C36.2398 28.4526 36.2561 28.0713 36.2561 25.0176C36.2536 21.9651 36.2536 21.5776 36.1836 20.3813ZM24.9923 30.7526C21.7998 30.7526 19.2136 28.1663 19.2136 24.9738C19.2136 21.7813 21.7998 19.1951 24.9923 19.1951C26.525 19.1951 27.9948 19.8039 29.0785 20.8876C30.1623 21.9713 30.7711 23.4412 30.7711 24.9738C30.7711 26.5064 30.1623 27.9763 29.0785 29.06C27.9948 30.1437 26.525 30.7526 24.9923 30.7526ZM31.0011 20.3288C30.2548 20.3288 29.6536 19.7263 29.6536 18.9813C29.6536 18.8044 29.6884 18.6293 29.7561 18.4659C29.8238 18.3025 29.923 18.154 30.0481 18.0289C30.1732 17.9039 30.3216 17.8047 30.485 17.737C30.6484 17.6693 30.8236 17.6344 31.0005 17.6344C31.1773 17.6344 31.3525 17.6693 31.5159 17.737C31.6793 17.8047 31.8278 17.9039 31.9529 18.0289C32.0779 18.154 32.1771 18.3025 32.2448 18.4659C32.3125 18.6293 32.3473 18.8044 32.3473 18.9813C32.3473 19.7263 31.7448 20.3288 31.0011 20.3288Z" fill="#4A4A4A"/>
<path d="M24.9925 28.7275C27.0657 28.7275 28.7463 27.0469 28.7463 24.9737C28.7463 22.9006 27.0657 21.22 24.9925 21.22C22.9194 21.22 21.2388 22.9006 21.2388 24.9737C21.2388 27.0469 22.9194 28.7275 24.9925 28.7275Z" fill="#4A4A4A"/>
</svg>
