<svg width="322" height="40" viewBox="0 0 322 40" fill="none" xmlns="http://www.w3.org/2000/svg">
<path d="M54.3445 19.344H51.99V17.6884H57.6188V19.344L67.5225 30.2108V19.344H65.034V17.6884H71.9517V19.344H69.5194V35.2946H67.6883L56.3082 23.0163V33.6476H58.7319V35.2946H51.99V33.6476H54.3445V19.344Z" fill="#888888"/>
<path d="M72.3711 29.03C72.3711 31.7705 74.1791 35.6422 79.4186 35.6422C84.3106 35.6422 86.4258 32.149 86.4258 29.03C86.4258 25.7722 84.1102 22.3903 79.4489 22.3903C74.3464 22.3903 72.3711 26.1002 72.3711 29.03ZM76.1356 28.9736C76.1356 26.012 77.1233 23.7526 79.4186 23.7526C81.5597 23.7526 82.6785 25.7404 82.6785 29.1528C82.6785 32.3859 81.4054 34.2871 79.4186 34.2871C77.3554 34.2871 76.1356 32.3281 76.1356 28.9736Z" fill="#888888"/>
<path d="M89.6146 24.0954H87.4187V22.7518H92.9898V24.8683H93.0461C93.5738 24.0694 94.0726 23.451 94.5758 23.0379C95.0689 22.6045 95.6038 22.3907 96.133 22.3907C96.74 22.3907 97.5863 22.9237 98.1529 23.636C98.0044 24.7787 97.5329 26.1872 96.9173 27.1841C96.2209 25.8954 95.6341 25.3927 94.8123 25.3927C94.1072 25.3927 93.7525 25.7712 92.9898 26.6235V33.948H95.154V35.2944H87.4187V33.948H89.6146V24.0954Z" fill="#888888"/>
<path d="M98.9482 24.3973L104.199 19.3438V22.7518H107.716V24.3973H104.199V31.5672C104.199 33.178 104.756 34.2875 105.87 34.2875C106.864 34.2875 107.487 33.3513 107.957 33.3513C108.184 33.3513 108.333 33.4684 108.333 33.7139C108.333 34.3222 107.191 35.6426 104.613 35.6426C102.001 35.6426 100.828 34.3222 100.828 31.4169V24.3973H98.9482Z" fill="#888888"/>
<path d="M114.996 24.2393C116.546 23.1327 118.135 22.3902 119.451 22.3902C121.451 22.3902 122.909 23.9576 122.909 26.1001V33.949H125.111V35.2939H117.727V33.949H119.539V26.7733C119.539 25.3026 118.862 24.5109 117.636 24.5109C116.936 24.5109 115.998 24.8894 114.996 25.5352V33.949H116.794V35.2939H109.389V33.949H111.63V17.315H109.389V15.9585H114.996V24.2393Z" fill="#888888"/>
<path d="M124.193 24.0953V22.7518H131.117V24.0953H129.414L132.227 30.3869L134.548 24.0953H132.779V22.7518H139.182V24.0953H137.575L140.411 30.3869L142.732 24.0953H140.822V22.7518H145.985V24.0953H144.22L139.887 35.5646H139.182L135.039 26.6553L131.704 35.5646H131.117L125.808 24.0953H124.193Z" fill="#888888"/>
<path d="M157.837 28.2108C157.455 24.6584 155.226 22.3903 152.113 22.3903C148.716 22.3903 146.371 25.0051 146.371 28.7685C146.371 31.7387 147.929 35.6422 153.114 35.6422C154.906 35.6422 156.194 35.2926 157.837 34.3579L158.071 32.7066C157.103 33.468 155.404 34.0068 154.089 34.0068C151.591 34.0068 149.951 31.6448 149.951 28.2108H157.837ZM149.951 26.8601C149.977 25.3027 150.648 23.7526 152.031 23.7526C153.234 23.7526 154.089 24.8693 154.351 26.8601H149.951Z" fill="#888888"/>
<path d="M160.055 31.5936H160.906C161.436 33.3012 162.571 34.2879 164.01 34.2879C164.973 34.2879 165.743 33.7996 165.743 32.7985C165.743 30.7687 159.933 30.2125 159.933 26.2469C159.933 24.0698 161.777 22.3911 164.186 22.3911C165.071 22.3911 165.772 22.6049 166.585 23.1337L166.819 22.485H167.766V25.8323H166.819C166.297 24.3342 165.677 23.752 164.542 23.752C163.479 23.752 162.808 24.2215 162.808 24.9539C162.808 27.5096 168.761 27.4734 168.761 31.7395C168.761 34.0582 166.912 35.6416 164.303 35.6416C163.213 35.6416 162.192 35.4119 161.224 34.9092L161.08 35.5087H160.055V31.5936Z" fill="#888888"/>
<path d="M169.644 24.3973L174.89 19.3438V22.7518H178.407V24.3973H174.89V31.5672C174.89 33.178 175.448 34.2875 176.56 34.2875C177.562 34.2875 178.173 33.3513 178.646 33.3513C178.878 33.3513 179.028 33.4684 179.028 33.7139C179.028 34.3222 177.881 35.6426 175.306 35.6426C172.692 35.6426 171.515 34.3222 171.515 31.4169V24.3973H169.644Z" fill="#888888"/>
<path d="M191.005 28.2108C190.628 24.6584 188.399 22.3903 185.296 22.3903C181.887 22.3903 179.541 25.0051 179.541 28.7685C179.541 31.7387 181.096 35.6422 186.287 35.6422C188.073 35.6422 189.37 35.2926 191.005 34.3579L191.245 32.7066C190.271 33.468 188.577 34.0068 187.259 34.0068C184.766 34.0068 183.125 31.6448 183.125 28.2108H191.005ZM183.125 26.8601C183.158 25.3027 183.823 23.7526 185.2 23.7526C186.404 23.7526 187.259 24.8693 187.521 26.8601H183.125Z" fill="#888888"/>
<path d="M194.716 24.0954H192.509V22.7518H198.093V24.8683H198.143C198.677 24.0694 199.176 23.451 199.672 23.0379C200.171 22.6045 200.694 22.3907 201.229 22.3907C201.842 22.3907 202.695 22.9237 203.24 23.636C203.103 24.7787 202.636 26.1872 202.016 27.1841C201.317 25.8954 200.731 25.3927 199.898 25.3927C199.2 25.3927 198.848 25.7712 198.093 26.6235V33.948H200.263V35.2944H192.509V33.948H194.716V24.0954Z" fill="#888888"/>
<path d="M206.763 24.0954H204.573V22.7518H210.135V24.2702C211.808 23.1332 213.006 22.3907 214.569 22.3907C216.766 22.3907 218.057 23.8397 218.057 26.2465V33.948H220.254V35.2944H212.863V33.948H214.681V26.4516C214.681 25.1818 213.834 24.5114 212.895 24.5114C212.078 24.5114 211.287 24.8061 210.135 25.5111V33.948H211.887V35.2944H204.573V33.948H206.763V24.0954Z" fill="#888888"/>
<path d="M230.135 19.344H227.764V17.6884H234.162V19.344L239.173 29.7051L244.105 19.344V17.6884H250.698V19.344H248.353V33.6476H250.698V35.2946H242.342V33.6476H244.801V22.5352H244.744L238.729 35.2946H238.055L232.19 23.0365H232.135V33.6476H234.51V35.2946H227.764V33.6476H230.135V19.344Z" fill="#888888"/>
<path d="M266.614 33.9491V35.294H261.049V34.095C259.402 35.2348 257.934 35.6422 256.732 35.6422C253.975 35.6422 253.153 33.965 253.153 32.1187V24.0964H250.949V22.7514H256.526V31.8601C256.526 33.0331 257.133 33.8869 258.227 33.8869C258.99 33.8869 259.784 33.5518 261.049 32.7991V24.0964H258.876V22.7514H264.414V33.9491H266.614Z" fill="#888888"/>
<path d="M266.904 24.3973L272.161 19.3438V22.7518H275.676V24.3973H272.161V31.5672C272.161 33.178 272.711 34.2875 273.829 34.2875C274.829 34.2875 275.439 33.3513 275.914 33.3513C276.143 33.3513 276.291 33.4684 276.291 33.7139C276.291 34.3222 275.144 35.6426 272.57 35.6426C269.96 35.6426 268.778 34.3222 268.778 31.4169V24.3973H266.904Z" fill="#888888"/>
<path d="M292.461 33.9491V35.294H286.886V34.095C285.238 35.2348 283.778 35.6422 282.578 35.6422C279.817 35.6422 278.989 33.965 278.989 32.1187V24.0964H276.791V22.7514H282.37V31.8601C282.37 33.0331 282.993 33.8869 284.073 33.8869C284.831 33.8869 285.62 33.5518 286.886 32.7991V24.0964H284.72V22.7514H290.26V33.9491H292.461Z" fill="#888888"/>
<path d="M305.423 33.5005C305.066 33.6767 304.796 33.7388 304.476 33.7388C303.713 33.7388 303.014 33.148 303.014 32.1194V26.5415C303.014 24.1376 301.223 22.3895 298.795 22.3895C297.141 22.3895 295.211 23.2231 293.745 24.5363L293.977 25.5692C295.478 24.6577 296.503 24.3052 297.467 24.3052C298.875 24.3052 299.637 25.1561 299.637 26.7741V28.2375L296.622 29.009C294.339 29.5955 293.361 30.5375 293.361 32.2393C293.361 34.2055 294.591 35.6415 296.295 35.6415C297.417 35.6415 298.504 35.1835 299.936 34.0957C300.316 35.0304 301.31 35.6415 302.475 35.6415C303.513 35.6415 304.476 35.3511 305.423 34.7718V33.5005ZM299.637 29.6894V32.7074C299.027 33.2072 298.351 33.5438 297.825 33.5438C297.064 33.5438 296.474 32.8562 296.474 32.0096C296.474 30.8567 297.141 30.2688 299.637 29.6894Z" fill="#888888"/>
<path d="M308.532 17.314H306.359V15.9574H311.905V33.9493H314.072V35.2943H306.359V33.9493H308.532V17.314Z" fill="#888888"/>
<path d="M11.9712 18.1731C15.2758 18.1731 18.1638 23.4953 18.6511 31.779L18.7491 31.7891C19.2062 30.1205 19.4066 28.3566 19.359 26.6013C19.359 20.564 16.5143 15.226 12.6921 15.226C9.1006 15.226 8.78773 18.2092 9.64416 19.521C9.9873 19.0616 10.6203 18.1731 11.9712 18.1731ZM15.6334 33.2237C15.8093 32.4537 15.9232 31.8599 15.9232 30.8154C15.9232 27.0492 13.6596 20.853 9.32119 20.853C6.02091 20.853 5.55809 24.0139 6.61782 25.0223C6.8312 24.3144 7.56364 23.3739 8.91172 23.3739C12.4038 23.3739 15.0105 28.8983 15.5498 33.2237H15.6334ZM37.3368 19.521C37.6814 19.0399 37.8184 18.4173 37.8184 17.9969C37.8184 16.5551 36.4717 15.1668 34.4893 15.1668C28.7293 15.1668 26.594 25.265 28.2434 31.7097H28.3198C28.8893 22.8582 31.7124 18.1067 34.9406 18.1067C36.6188 18.1067 37.197 19.1064 37.3368 19.521ZM37.5531 20.8804C32.1103 20.8804 30.1148 30.0468 31.2121 33.2309H31.2827C31.92 28.5848 34.4287 23.3956 37.8184 23.3956C39.6394 23.3956 40.1382 24.5311 40.2075 25.0338C41.371 23.7972 40.676 20.8804 37.5531 20.8804ZM24.4615 36.3023C21.2031 36.3023 17.8163 37.0838 15.0408 38.8304L15.0769 38.9171C16.4235 38.7091 19.7094 38.3364 23.7421 38.3364C28.1915 38.3364 29.7933 38.9171 30.5359 38.9171C31.0376 38.9171 31.2668 38.634 31.2668 38.1688C31.2668 36.8859 28.0257 36.3023 24.4615 36.3023ZM24.4615 32.8813C21.6803 32.8813 17.874 33.6094 15.0408 35.4022L15.0769 35.4947C16.2043 35.3358 19.806 34.859 23.8805 34.859C27.7402 34.859 29.9519 35.4947 30.5359 35.4947C31.0376 35.4947 31.2668 35.2072 31.2668 34.7492C31.2668 33.4563 28.0257 32.8813 24.4615 32.8813ZM37.3484 10.9368C36.9346 11.009 36.3535 11.6374 36.3535 12.5765C36.3535 13.6484 37.1422 15.8067 40.1959 15.8067C43.3477 15.8067 45.4801 13.4606 45.4801 10.2462C45.4801 7.09538 43.1804 4.18004 38.1413 4.18004C32.1391 4.18004 24.4255 9.54988 24.4255 22.601C24.4313 25.0916 24.7297 27.8119 25.3324 30.7533H25.4391C25.4391 14.7146 31.4399 7.15028 37.9251 7.15028C40.7049 7.15028 42.2202 8.91856 42.2202 10.7591C42.2202 12.4508 41.2167 13.66 39.6206 13.66C37.6555 13.66 37.0499 11.9596 37.3484 10.9368ZM9.20729 12.8943C8.98093 13.293 8.29751 13.9084 7.07054 13.9084C5.55809 13.9084 4.31526 12.6617 4.31526 10.8819C4.31526 9.29128 5.71381 7.66025 8.18794 7.66025C14.3257 7.66025 21.5232 16.5016 21.6125 27.7628C21.6125 28.475 21.5664 29.729 21.4439 30.749L21.5448 30.7692C22.2037 28.8348 22.7213 25.8183 22.7213 23.7019C22.7213 13.8897 16.027 4.4632 8.13603 4.4632C3.4545 4.4632 1.0813 7.57501 1.0813 10.2997C1.0813 13.4028 2.90806 15.7591 5.74697 15.7591C7.97455 15.7591 9.20729 14.141 9.20729 12.8943ZM8.37249 1.08267C7.76261 1.08267 7.42811 1.40194 7.42811 1.85413C7.42811 2.4161 7.79 2.69781 8.5109 2.99397C10.6952 3.88677 14.8678 4.42708 19.5854 4.43286C27.9392 4.43286 36.4717 3.24245 40.2521 1.71544L40.2262 1.6172C37.1508 1.81945 31.8537 2.17195 23.3888 2.17195C11.8616 2.17195 9.44807 1.08267 8.37249 1.08267ZM15.0163 5.46291L15.0062 5.55392C15.9895 5.91653 20.5744 7.93618 22.5944 15.5019C22.7098 15.9498 22.9347 16.1246 23.2403 16.1246C23.7248 16.1246 23.931 15.7663 23.931 15.1075C23.931 11.5695 22.0148 8.44037 20.3164 7.07805C18.6237 5.70272 16.3658 5.36756 15.0163 5.46291ZM26.3287 6.58253C27.7676 5.04973 29.8986 4.48198 32.129 4.69146L32.1348 4.77958C31.4053 4.98328 29.6362 5.63049 27.8829 7.49122C26.4282 9.04424 25.416 10.9194 24.9114 12.5765C24.3491 9.45597 25.3728 7.61113 26.3287 6.58253Z" fill="#888888"/>
<path d="M318.178 17.6074H318.723C318.9 17.6074 319.192 17.5641 319.192 17.2607C319.192 17.1162 319.092 16.9386 318.768 16.9386H318.178V17.6074ZM318.178 19.003H317.655V16.5369H318.801C318.946 16.5369 319.737 16.5369 319.737 17.2723C319.737 17.7403 319.405 17.8761 319.279 17.931L319.737 19.003H319.181L318.779 18.0206H318.178V19.003ZM318.623 19.6603C319.66 19.6603 320.505 18.8137 320.505 17.775C320.505 16.7146 319.66 15.8767 318.623 15.8767C317.598 15.8767 316.742 16.7146 316.742 17.775C316.742 18.8137 317.587 19.6603 318.623 19.6603ZM318.623 15.4664C319.872 15.4664 320.919 16.482 320.919 17.775C320.919 19.0377 319.894 20.0735 318.623 20.0735C317.355 20.0735 316.328 19.0377 316.328 17.775C316.328 16.482 317.365 15.4664 318.623 15.4664Z" fill="#888888"/>
</svg>
