<svg width="50" height="50" viewBox="0 0 50 50" fill="none" xmlns="http://www.w3.org/2000/svg">
<circle cx="25" cy="25" r="24" stroke="#4A4A4A" stroke-width="2"/>
<path d="M39.5534 16.1712C38.5096 16.6337 37.3884 16.9462 36.2096 17.0875C37.4259 16.3597 38.3358 15.2143 38.7696 13.865C37.627 14.5437 36.3763 15.0215 35.0721 15.2775C34.1951 14.3411 33.0335 13.7204 31.7676 13.5118C30.5016 13.3033 29.2023 13.5185 28.0712 14.124C26.9401 14.7296 26.0406 15.6917 25.5123 16.8609C24.9841 18.03 24.8566 19.3409 25.1496 20.59C22.8343 20.4737 20.5692 19.8719 18.5014 18.8236C16.4337 17.7753 14.6094 16.3039 13.1471 14.505C12.6471 15.3675 12.3596 16.3675 12.3596 17.4325C12.3591 18.3912 12.5952 19.3353 13.047 20.1809C13.4988 21.0265 14.1523 21.7475 14.9496 22.28C14.025 22.2506 13.1207 22.0007 12.3121 21.5512V21.6262C12.3121 22.9709 12.7772 24.2742 13.6286 25.315C14.4801 26.3557 15.6654 27.0699 16.9834 27.3362C16.1256 27.5684 15.2263 27.6026 14.3534 27.4362C14.7253 28.5932 15.4496 29.605 16.4251 30.3299C17.4006 31.0548 18.5783 31.4564 19.7934 31.4787C17.7307 33.098 15.1833 33.9763 12.5609 33.9725C12.0964 33.9726 11.6322 33.9455 11.1709 33.8912C13.8327 35.6027 16.9313 36.511 20.0959 36.5075C30.8084 36.5075 36.6646 27.635 36.6646 19.94C36.6646 19.69 36.6584 19.4375 36.6471 19.1875C37.7863 18.3637 38.7695 17.3436 39.5509 16.175L39.5534 16.1712Z" fill="#4A4A4A"/>
</svg>
